<mxfile host="app.diagrams.net" agent="Mozilla/5.0 (Windows NT 10.0; Win64; x64) AppleWebKit/537.36 (KHTML, like Gecko) Chrome/138.0.0.0 Safari/537.36" version="28.0.7">
  <diagram name="Page-1" id="4_HvtgjnRuFwcgZLW379">
    <mxGraphModel dx="872" dy="511" grid="1" gridSize="10" guides="1" tooltips="1" connect="1" arrows="1" fold="1" page="1" pageScale="1" pageWidth="827" pageHeight="1169" math="0" shadow="0">
      <root>
        <mxCell id="0" />
        <mxCell id="1" parent="0" />
        <mxCell id="_B2RO10Gvm6IjN-VGrcE-6" value="" style="ellipse;whiteSpace=wrap;html=1;aspect=fixed;" vertex="1" parent="1">
          <mxGeometry x="80" y="40" width="80" height="80" as="geometry" />
        </mxCell>
        <mxCell id="_B2RO10Gvm6IjN-VGrcE-7" value="mulai" style="endArrow=classic;html=1;rounded=0;" edge="1" parent="1">
          <mxGeometry width="50" height="50" relative="1" as="geometry">
            <mxPoint x="119.5" y="120" as="sourcePoint" />
            <mxPoint x="119.5" y="170" as="targetPoint" />
          </mxGeometry>
        </mxCell>
        <mxCell id="_B2RO10Gvm6IjN-VGrcE-8" value="masyarakat login/daftar" style="rounded=0;whiteSpace=wrap;html=1;" vertex="1" parent="1">
          <mxGeometry x="60" y="170" width="120" height="60" as="geometry" />
        </mxCell>
        <mxCell id="_B2RO10Gvm6IjN-VGrcE-10" value="" style="endArrow=classic;html=1;rounded=0;" edge="1" parent="1" target="_B2RO10Gvm6IjN-VGrcE-11">
          <mxGeometry width="50" height="50" relative="1" as="geometry">
            <mxPoint x="119.5" y="230" as="sourcePoint" />
            <mxPoint x="119.5" y="310" as="targetPoint" />
          </mxGeometry>
        </mxCell>
        <mxCell id="_B2RO10Gvm6IjN-VGrcE-14" value="" style="edgeStyle=orthogonalEdgeStyle;rounded=0;orthogonalLoop=1;jettySize=auto;html=1;" edge="1" parent="1" source="_B2RO10Gvm6IjN-VGrcE-11" target="_B2RO10Gvm6IjN-VGrcE-13">
          <mxGeometry relative="1" as="geometry" />
        </mxCell>
        <mxCell id="_B2RO10Gvm6IjN-VGrcE-11" value="pilih jenis layanan" style="rounded=0;whiteSpace=wrap;html=1;" vertex="1" parent="1">
          <mxGeometry x="59.5" y="280" width="120" height="60" as="geometry" />
        </mxCell>
        <mxCell id="_B2RO10Gvm6IjN-VGrcE-12" value="" style="endArrow=classic;html=1;rounded=0;" edge="1" parent="1">
          <mxGeometry width="50" height="50" relative="1" as="geometry">
            <mxPoint x="119" y="340" as="sourcePoint" />
            <mxPoint x="120" y="390" as="targetPoint" />
          </mxGeometry>
        </mxCell>
        <mxCell id="_B2RO10Gvm6IjN-VGrcE-13" value="isi formulir permohonan" style="rounded=0;whiteSpace=wrap;html=1;" vertex="1" parent="1">
          <mxGeometry x="60" y="390" width="120" height="60" as="geometry" />
        </mxCell>
        <mxCell id="_B2RO10Gvm6IjN-VGrcE-15" value="" style="endArrow=classic;html=1;rounded=0;" edge="1" parent="1">
          <mxGeometry width="50" height="50" relative="1" as="geometry">
            <mxPoint x="119" y="450" as="sourcePoint" />
            <mxPoint x="120" y="500" as="targetPoint" />
          </mxGeometry>
        </mxCell>
        <mxCell id="_B2RO10Gvm6IjN-VGrcE-16" value="kirim permohonan" style="rounded=0;whiteSpace=wrap;html=1;" vertex="1" parent="1">
          <mxGeometry x="59.5" y="500" width="120" height="60" as="geometry" />
        </mxCell>
        <mxCell id="_B2RO10Gvm6IjN-VGrcE-17" value="" style="endArrow=classic;html=1;rounded=0;" edge="1" parent="1">
          <mxGeometry width="50" height="50" relative="1" as="geometry">
            <mxPoint x="179.5" y="540" as="sourcePoint" />
            <mxPoint x="240" y="540" as="targetPoint" />
          </mxGeometry>
        </mxCell>
        <mxCell id="_B2RO10Gvm6IjN-VGrcE-18" value="status perhomonan" style="rhombus;whiteSpace=wrap;html=1;" vertex="1" parent="1">
          <mxGeometry x="240" y="480" width="70" height="90" as="geometry" />
        </mxCell>
        <mxCell id="_B2RO10Gvm6IjN-VGrcE-19" value="no" style="endArrow=classic;html=1;rounded=0;" edge="1" parent="1" target="_B2RO10Gvm6IjN-VGrcE-20">
          <mxGeometry width="50" height="50" relative="1" as="geometry">
            <mxPoint x="270" y="570" as="sourcePoint" />
            <mxPoint x="269.5" y="630" as="targetPoint" />
          </mxGeometry>
        </mxCell>
        <mxCell id="_B2RO10Gvm6IjN-VGrcE-20" value="finish" style="rounded=0;whiteSpace=wrap;html=1;" vertex="1" parent="1">
          <mxGeometry x="210" y="610" width="120" height="60" as="geometry" />
        </mxCell>
        <mxCell id="_B2RO10Gvm6IjN-VGrcE-21" value="yes" style="endArrow=classic;html=1;rounded=0;" edge="1" parent="1">
          <mxGeometry width="50" height="50" relative="1" as="geometry">
            <mxPoint x="300" y="540" as="sourcePoint" />
            <mxPoint x="370" y="540" as="targetPoint" />
          </mxGeometry>
        </mxCell>
        <mxCell id="_B2RO10Gvm6IjN-VGrcE-22" value="notifikasi ke masyarakat" style="rounded=0;whiteSpace=wrap;html=1;" vertex="1" parent="1">
          <mxGeometry x="370" y="510" width="120" height="60" as="geometry" />
        </mxCell>
        <mxCell id="_B2RO10Gvm6IjN-VGrcE-23" value="" style="endArrow=classic;html=1;rounded=0;" edge="1" parent="1" target="_B2RO10Gvm6IjN-VGrcE-24">
          <mxGeometry width="50" height="50" relative="1" as="geometry">
            <mxPoint x="490" y="540" as="sourcePoint" />
            <mxPoint x="540" y="540" as="targetPoint" />
          </mxGeometry>
        </mxCell>
        <mxCell id="_B2RO10Gvm6IjN-VGrcE-24" value="" style="ellipse;whiteSpace=wrap;html=1;aspect=fixed;" vertex="1" parent="1">
          <mxGeometry x="530" y="500" width="80" height="80" as="geometry" />
        </mxCell>
      </root>
    </mxGraphModel>
  </diagram>
</mxfile>
